<svg width="32.000000" height="32.000000" viewBox="0 0 32 32" fill="none" xmlns="http://www.w3.org/2000/svg" xmlns:xlink="http://www.w3.org/1999/xlink">
	<desc>
			Created with Pixso.
	</desc>
	<defs/>
	<path id="Vector" d="M22.98 29.33C26.66 29.33 28.13 27.07 28.3 24.33L29 13.31C29.18 10.43 26.89 7.99 24 7.99C23.18 7.99 22.44 7.53 22.06 6.81L21.1 4.87C20.49 3.66 18.89 2.66 17.53 2.66L14.48 2.66C13.1 2.66 11.5 3.66 10.89 4.87L9.93 6.81C9.56 7.53 8.81 7.99 8 7.99C5.1 7.99 2.81 10.43 3 13.31L3.69 24.33C3.85 27.07 5.33 29.33 9.01 29.33L22.98 29.33Z" stroke="#5454D4" stroke-opacity="1.000000" stroke-width="2.000000" stroke-linejoin="round"/>
	<path id="Vector" d="M14 10.66L18 10.66" stroke="#5454D4" stroke-opacity="1.000000" stroke-width="2.000000" stroke-linejoin="round" stroke-linecap="round"/>
	<path id="Vector" d="M20.33 19.66C20.33 17.28 18.38 15.33 16 15.33C13.61 15.33 11.66 17.28 11.66 19.66C11.66 22.05 13.61 24 16 24C18.38 24 20.33 22.05 20.33 19.66Z" stroke="#5454D4" stroke-opacity="1.000000" stroke-width="2.000000" stroke-linejoin="round"/>
	<g opacity="0.000000">
		<path id="Vector" d="M32 0L0 0L0 32L32 32L32 0ZM1.33 30.66L1.33 1.33L30.66 1.33L30.66 30.66L1.33 30.66Z" fill="#5454D4" fill-opacity="1.000000" fill-rule="evenodd"/>
	</g>
</svg>
