<svg width="32.000000" height="32.000000" viewBox="0 0 32 32" fill="none" xmlns="http://www.w3.org/2000/svg" xmlns:xlink="http://www.w3.org/1999/xlink">
	<desc>
			Created with Pixso.
	</desc>
	<defs/>
	<path id="Vector" d="M25.21 7.38C27.48 8.38 27.48 10.03 25.21 11.03L17.34 14.53C16.45 14.93 14.98 14.93 14.09 14.53L6.22 11.03C3.96 10.03 3.96 8.38 6.22 7.38L14.09 3.89C14.98 3.49 16.45 3.49 17.34 3.89L25.21 7.38Z" stroke="#F04037" stroke-opacity="1.000000" stroke-width="2.000000" stroke-linejoin="round"/>
	<path id="Vector" d="M4 14.66C4 15.78 4.83 17.08 5.86 17.53L14.92 21.56C15.61 21.86 16.4 21.86 17.08 21.56L26.13 17.53C27.16 17.08 28 15.78 28 14.66" stroke="#F04037" stroke-opacity="1.000000" stroke-width="2.000000" stroke-linejoin="round" stroke-linecap="round"/>
	<path id="Vector" d="M4 21.33C4 22.57 4.73 23.69 5.86 24.2L14.92 28.22C15.61 28.53 16.4 28.53 17.08 28.22L26.13 24.2C27.26 23.69 28 22.57 28 21.33" stroke="#F04037" stroke-opacity="1.000000" stroke-width="2.000000" stroke-linejoin="round" stroke-linecap="round"/>
	<g opacity="0.000000">
		<path id="Vector" d="M32 0L0 0L0 32L32 32L32 0ZM1.33 30.66L1.33 1.33L30.66 1.33L30.66 30.66L1.33 30.66Z" fill="#F04037" fill-opacity="1.000000" fill-rule="evenodd"/>
	</g>
</svg>
