<svg width="32.000000" height="32.000000" viewBox="0 0 32 32" fill="none" xmlns="http://www.w3.org/2000/svg" xmlns:xlink="http://www.w3.org/1999/xlink">
	<desc>
			Created with Pixso.
	</desc>
	<defs/>
	<path id="Vector" d="M7.8 25.66C5.8 25.66 5 24.81 5 22.69L5 21.3C5 19.18 5.8 18.33 7.8 18.33L22.2 18.33C24.2 18.33 25 19.18 25 21.3L25 22.69C25 24.81 24.2 25.66 22.2 25.66L7.8 25.66Z" stroke="#FEDC5A" stroke-opacity="1.000000" stroke-width="2.000000" stroke-linejoin="round"/>
	<path id="Vector" d="M10.46 14.33C8.46 14.33 7.66 13.48 7.66 11.36L7.66 9.97C7.66 7.85 8.46 7 10.46 7L19.53 7C21.53 7 22.33 7.85 22.33 9.97L22.33 11.36C22.33 13.48 21.53 14.33 19.53 14.33L10.46 14.33Z" stroke="#FEDC5A" stroke-opacity="1.000000" stroke-width="2.000000" stroke-linejoin="round"/>
	<path id="Vector" d="M18.2 26.13L15 26.13" stroke="#FEDC5A" stroke-opacity="1.000000" stroke-width="2.000000" stroke-linejoin="round" stroke-linecap="round"/>
	<path id="Vector" d="M17.66 14.66L15 14.66" stroke="#FEDC5A" stroke-opacity="1.000000" stroke-width="2.000000" stroke-linejoin="round" stroke-linecap="round"/>
	<path id="Vector" d="M15 2.66L18.58 2.66" stroke="#292D32" stroke-opacity="1.000000" stroke-width="2.000000" stroke-linejoin="round" stroke-linecap="round"/>
	<g opacity="0.000000"/>
</svg>
