<svg width="32.000000" height="32.000000" viewBox="0 0 32 32" fill="none" xmlns="http://www.w3.org/2000/svg" xmlns:xlink="http://www.w3.org/1999/xlink">
	<desc>
			Created with Pixso.
	</desc>
	<defs/>
	<path id="Vector" d="M12 17.33C11.12 17.77 10.38 18.42 9.83 19.23C9.53 19.7 9.53 20.29 9.83 20.75C10.38 21.57 11.12 22.22 12 22.66" stroke="#FEDC5A" stroke-opacity="1.000000" stroke-width="2.000000" stroke-linejoin="round" stroke-linecap="round"/>
	<path id="Vector" d="M20.27 17.33C21.15 17.77 21.89 18.42 22.43 19.23C22.74 19.7 22.74 20.29 22.43 20.75C21.89 21.57 21.15 22.22 20.27 22.66" stroke="#FEDC5A" stroke-opacity="1.000000" stroke-width="2.000000" stroke-linejoin="round" stroke-linecap="round"/>
	<path id="Vector" d="M20 29.33C26.66 29.33 29.33 26.66 29.33 20L29.33 12C29.33 5.33 26.66 2.66 20 2.66L12 2.66C5.33 2.66 2.66 5.33 2.66 12L2.66 20C2.66 26.66 5.33 29.33 12 29.33L20 29.33Z" stroke="#FEDC5A" stroke-opacity="1.000000" stroke-width="2.000000" stroke-linejoin="round"/>
	<path id="Vector" d="M2.97 10.68L28.6 10.66" stroke="#FEDC5A" stroke-opacity="1.000000" stroke-width="2.000000" stroke-linejoin="round" stroke-linecap="round"/>
	<g opacity="0.000000"/>
</svg>
