<svg width="32.000000" height="32.000000" viewBox="0 0 32 32" fill="none" xmlns="http://www.w3.org/2000/svg" xmlns:xlink="http://www.w3.org/1999/xlink">
	<desc>
			Created with Pixso.
	</desc>
	<defs/>
	<path id="Vector" d="M29.33 11.99C29.33 5.33 26.66 2.66 20 2.66L12 2.66C5.33 2.66 2.66 5.33 2.66 11.99L2.66 19.99C2.66 26.66 5.33 29.33 12 29.33L20 29.33C26.66 29.33 29.33 26.66 29.33 19.99L29.33 11.99Z" stroke="#F04037" stroke-opacity="1.000000" stroke-width="2.000000" stroke-linejoin="round"/>
	<path id="Vector" d="M3.35 9.47L28.64 9.47" stroke="#F04037" stroke-opacity="1.000000" stroke-width="2.000000" stroke-linejoin="round" stroke-linecap="round"/>
	<path id="Vector" d="M11.36 2.81L17.84 2.81" stroke="#F04037" stroke-opacity="1.000000" stroke-width="2.000000" stroke-linejoin="round" stroke-linecap="round"/>
	<path id="Vector" d="M20.64 2.81L26.52 2.81" stroke="#F04037" stroke-opacity="1.000000" stroke-width="2.000000" stroke-linejoin="round" stroke-linecap="round"/>
	<path id="Vector" d="M13 17.66C13 15.61 14.45 14.77 16.22 15.8L17.61 16.6L19 17.4C20.77 18.42 20.77 20.1 19 21.13L17.61 21.93L16.22 22.73C14.45 23.76 13 22.92 13 20.86L13 19.26L13 17.66Z" stroke="#F04037" stroke-opacity="1.000000" stroke-width="2.000000" stroke-linejoin="round"/>
	<g opacity="0.000000"/>
</svg>
