<svg width="32.000000" height="32.000000" viewBox="0 0 32 32" fill="none" xmlns="http://www.w3.org/2000/svg" xmlns:xlink="http://www.w3.org/1999/xlink">
	<desc>
			Created with Pixso.
	</desc>
	<defs/>
	<path id="Vector" d="M8.8 25.66C6.8 25.66 6 24.81 6 22.69L6 21.3C6 19.18 6.8 18.33 8.8 18.33L23.2 18.33C25.2 18.33 26 19.18 26 21.3L26 22.69C26 24.81 25.2 25.66 23.2 25.66L8.8 25.66Z" stroke="#FEDC5A" stroke-opacity="1.000000" stroke-width="2.000000" stroke-linejoin="round"/>
	<path id="Vector" d="M11.46 14.33C9.46 14.33 8.66 13.48 8.66 11.36L8.66 9.97C8.66 7.85 9.46 7 11.46 7L20.53 7C22.53 7 23.33 7.85 23.33 9.97L23.33 11.36C23.33 13.48 22.53 14.33 20.53 14.33L11.46 14.33Z" stroke="#FEDC5A" stroke-opacity="1.000000" stroke-width="2.000000" stroke-linejoin="round"/>
	<path id="Vector" d="M19.2 26.13L16 26.13" stroke="#FEDC5A" stroke-opacity="1.000000" stroke-width="2.000000" stroke-linejoin="round" stroke-linecap="round"/>
	<path id="Vector" d="M18.66 14.66L16 14.66" stroke="#FEDC5A" stroke-opacity="1.000000" stroke-width="2.000000" stroke-linejoin="round" stroke-linecap="round"/>
	<path id="Vector" d="M16 2.66L19.58 2.66" stroke="#FEDC5A" stroke-opacity="1.000000" stroke-width="2.000000" stroke-linejoin="round" stroke-linecap="round"/>
	<g opacity="0.000000"/>
</svg>
